HIERARCHY
ROOT hip
{
	OFFSET 0.000000 0.000000 0.000000 
	CHANNELS 6 Xposition Yposition Zposition Zrotation Xrotation Yrotation
	JOINT abdomen
	{
		OFFSET 0.000000 3.402643 0.000000 
		CHANNELS 3 Zrotation Xrotation Yrotation
		JOINT chest
		{
			OFFSET 0.000000 8.438565 -0.680529 
			CHANNELS 3 Zrotation Xrotation Yrotation
			JOINT neck
			{
				OFFSET 0.000000 10.207942 -0.272212 
				CHANNELS 3 Zrotation Xrotation Yrotation
				JOINT head
				{
					OFFSET 0.000000 3.130431 0.000000 
					CHANNELS 3 Zrotation Xrotation Yrotation
					End Site
					{
						OFFSET 0.000000 3.130435 0.000000 
					}
				}
			}
			JOINT lCollar
			{
				OFFSET 3.470700 6.669187 -0.816635 
				CHANNELS 3 Zrotation Yrotation Xrotation
				JOINT lShldr
				{
					OFFSET 3.198488 0.000000 0.000000 
					CHANNELS 3 Zrotation Yrotation Xrotation
					JOINT lForeArm
					{
						OFFSET 10.139888 0.000000 0.000000 
						CHANNELS 3 Zrotation Yrotation Xrotation
						JOINT lHand
						{
							OFFSET 8.370511 0.000000 0.000000 
							CHANNELS 3 Zrotation Yrotation Xrotation
							JOINT lFingers
							{
								OFFSET 4.083176 0.000000 0.000000 
								CHANNELS 3 Zrotation Xrotation Yrotation
								End Site
								{
									OFFSET 0.000000 0.000000 0.000000 
								}
							}
						}
					}
				}
			}
			JOINT rCollar
			{
				OFFSET -3.470700 6.669187 -0.816635 
				CHANNELS 3 Zrotation Yrotation Xrotation
				JOINT rShldr
				{
					OFFSET -3.198488 0.000000 0.000000 
					CHANNELS 3 Zrotation Yrotation Xrotation
					JOINT rForeArm
					{
						OFFSET -10.139888 0.000000 0.000000 
						CHANNELS 3 Zrotation Yrotation Xrotation
						JOINT rHand
						{
							OFFSET -8.370511 0.000000 0.000000 
							CHANNELS 3 Zrotation Yrotation Xrotation
							JOINT rFingers
							{
								OFFSET -4.083176 0.000000 0.000000 
								CHANNELS 3 Zrotation Xrotation Yrotation
								End Site
								{
									OFFSET 0.000000 0.000000 0.000000 
								}
							}
						}
					}
				}
			}
		}
	}
	JOINT lThigh
	{
		OFFSET 5.308129 -1.633274 1.361059 
		CHANNELS 3 Zrotation Xrotation Yrotation
		JOINT lShin
		{
			OFFSET -2.041588 -20.007561 0.000000 
			CHANNELS 3 Zrotation Xrotation Yrotation
			JOINT lFoot
			{
				OFFSET 0.000000 -19.190928 -1.224953 
				CHANNELS 3 Zrotation Xrotation Yrotation
				JOINT lToes
				{
					OFFSET 0.000000 -2.449906 4.627600 
					CHANNELS 3 Zrotation Xrotation Yrotation
					End Site
					{
						OFFSET 0.000000 0.000000 0.000000 
					}
				}
			}
		}
	}
	JOINT rThigh
	{
		OFFSET -5.308129 -1.633274 1.361059 
		CHANNELS 3 Zrotation Xrotation Yrotation
		JOINT rShin
		{
			OFFSET 2.041588 -20.007561 0.000000 
			CHANNELS 3 Zrotation Xrotation Yrotation
			JOINT rFoot
			{
				OFFSET 0.000000 -19.190928 -1.224953 
				CHANNELS 3 Zrotation Xrotation Yrotation
				JOINT rToes
				{
					OFFSET 0.000000 -2.449906 4.627600 
					CHANNELS 3 Zrotation Xrotation Yrotation
					End Site
					{
						OFFSET 0.000000 0.000000 0.000000 
					}
				}
			}
		}
	}
}
MOTION
Frames: 7
Frame Time: 0.016667
6.462961 50.182537 -0.090055 9.495740 8.185369 -98.493500 5.561920 -4.585120 -1.265530 5.665350 3.607010 -2.281040 0.000000 0.000000 0.000000 3.445590 5.566580 6.869280 -19.100000 0.000000 0.000000 -80.627800 -49.186901 -118.567001 0.000000 52.947102 -0.000000 0.000021 -0.000000 -157.001007 -7.125020 0.000000 0.000000 19.100000 0.000000 0.000000 35.856697 34.725700 -157.779999 -180.000000 -87.891701 -180.000000 0.000008 0.000013 149.046997 7.122600 0.186031 -0.011578 22.860901 -27.918200 6.715940 0.000000 35.492699 0.000000 0.061898 -10.205600 0.349343 0.000000 -9.086560 0.000000 -2.295850 -33.500198 3.203370 0.000000 44.125000 0.000000 1.472540 -20.421400 4.213580 0.000000 -5.795700 0.000000 
6.434580 50.145832 0.141189 9.397540 7.708260 -99.743797 4.797690 -5.007570 -0.954184 5.037380 3.249260 -1.699460 0.000000 0.000000 0.000000 3.019640 5.119030 6.790380 -19.100000 0.000000 0.000000 -81.706001 -49.828499 -114.526001 0.000000 53.991299 -0.000000 0.000021 0.000001 -158.677002 -7.125020 0.000000 0.000000 19.100000 0.000000 0.000000 32.549896 34.607399 -160.268997 -180.000000 -86.025002 -180.000000 0.000008 0.000013 149.574997 7.122600 0.186031 -0.011578 22.708099 -27.631701 7.926460 0.000000 36.055698 0.000000 0.090867 -10.428100 0.502012 0.000000 -9.846110 0.000000 -2.561880 -33.746201 3.910220 0.000000 44.243801 0.000000 1.627980 -20.553499 4.628200 0.000000 -5.852580 0.000000 
6.405594 50.101601 0.370073 9.304280 7.279270 -100.942001 4.406480 -5.241460 -0.817204 4.663220 3.071970 -1.445240 0.000000 0.000000 0.000000 2.795920 4.854420 6.866430 -19.100000 0.000000 0.000000 -82.536102 -50.895302 -111.549004 0.000000 55.207001 -0.000000 0.000021 0.000001 -160.207001 -7.125020 0.000000 0.000000 19.100000 0.000000 0.000000 28.881599 35.248001 -162.313004 -180.000000 -84.439598 -180.000000 0.000008 0.000013 149.947998 7.122600 0.186031 -0.011578 22.572599 -27.394699 9.003590 0.000000 36.648899 0.000000 0.130342 -10.711400 0.701250 0.000000 -10.613900 0.000000 -2.764480 -34.016399 4.606470 0.000000 44.404900 0.000000 1.733590 -20.847099 4.861130 0.000000 -6.381290 0.000000 
6.374524 50.054947 0.585452 9.240180 6.896820 -102.153000 4.258970 -5.298360 -0.785119 4.452470 3.050590 -1.389060 0.000000 0.000000 0.000000 2.717090 4.717260 7.057630 -19.100000 0.000000 0.000000 -83.424896 -52.384602 -109.153999 0.000000 56.300400 -0.000000 0.000021 0.000002 -161.757996 -7.125020 0.000000 0.000000 19.100000 0.000000 0.000000 24.825199 36.420799 -164.138000 -180.000000 -83.040802 -180.000000 0.000008 0.000013 149.985001 7.122600 0.186031 -0.011578 22.488899 -27.154400 9.994540 0.000000 37.207500 0.000000 0.185369 -11.059500 0.966238 0.000000 -11.159100 0.000000 -2.840870 -34.328400 5.347330 0.000000 44.614498 0.000000 1.770530 -21.354900 4.852100 0.000000 -7.524080 0.000000 
6.338372 50.010452 0.779291 9.206060 6.525860 -103.402000 4.141970 -5.301890 -0.757909 4.258320 3.061500 -1.340320 0.000000 0.000000 0.000000 2.677520 4.608330 7.271430 -19.100000 0.000000 0.000000 -84.462997 -53.892899 -106.927002 0.000000 57.248501 -0.000000 0.000021 0.000002 -163.414001 -7.125020 0.000000 0.000000 19.100000 0.000000 0.000000 20.563499 37.581100 -166.048004 -180.000000 -81.716103 -180.000000 0.000008 0.000013 149.613007 7.122600 0.186031 -0.011578 22.422100 -26.895100 10.923000 0.000000 37.712299 0.000000 0.264904 -11.409800 1.338850 0.000000 -11.655200 0.000000 -2.831680 -34.683498 6.116340 0.000000 44.876301 0.000000 1.764810 -22.001400 4.701730 0.000000 -8.838730 0.000000 
6.301629 49.969574 0.946478 9.195940 6.137320 -104.612999 4.042300 -5.306380 -0.722743 4.060050 3.058010 -1.278030 0.000000 0.000000 0.000000 2.658320 4.514020 7.472830 -19.100000 0.000000 0.000000 -85.646194 -55.222801 -104.835999 0.000000 58.113400 -0.000000 0.000022 0.000003 -165.177994 -7.125020 0.000000 0.000000 19.100000 0.000000 0.000000 16.236198 38.544201 -168.056000 -180.000000 -80.450699 -180.000000 0.000008 0.000013 148.981995 7.122600 0.186031 -0.011578 22.320900 -26.660999 11.763700 0.000000 38.167999 0.000000 0.365634 -11.713400 1.800450 0.000000 -12.143800 0.000000 -2.831700 -35.078499 6.808320 0.000000 45.197300 0.000000 1.696320 -22.668501 4.394140 0.000000 -9.523130 0.000000 
6.268461 49.930721 1.079937 9.213420 5.743340 -105.698997 3.944860 -5.324530 -0.706380 3.858250 3.032590 -1.255980 0.000000 0.000000 0.000000 2.670530 4.452020 7.665630 -19.100000 0.000000 0.000000 -86.870399 -56.369202 -102.954002 0.000000 58.943401 -0.000000 0.000022 0.000004 -167.078003 -7.125020 0.000000 0.000000 19.100000 0.000000 0.000000 11.940598 39.330601 -170.042007 -180.000000 -79.252998 -180.000000 0.000008 0.000013 148.332001 7.122600 0.186031 -0.011578 22.184099 -26.502001 12.460200 0.000000 38.580799 0.000000 0.478614 -11.952900 2.309760 0.000000 -12.576400 0.000000 -2.879600 -35.505798 7.320990 0.000000 45.584900 0.000000 1.364350 -23.211800 3.458110 0.000000 -8.630260 0.000000 
